# xmcd
#
# Track frame offsets: 
#        150
#        17548
#        34347
#        53051
#        69591
#        89277
#        105721
#        120620
#        136164
#        154249
#        171923
#        186995
#
# Disc length: 2758 seconds
#
# Revision: 0
# Processed by: cddbd v1.5.2PL0 Copyright (c) Steve Scherf et al.
# Submitted via: ExactAudioCopyFreeDBPlugin 1.0
#
DISCID=9f0ac40c
DTITLE=Andreya Triana - Giants
DYEAR=2015
DGENRE=Soul
TTITLE0=Paperwalls
TTITLE1=Gold
TTITLE2=That's all right with me
TTITLE3=Lullaby
TTITLE4=Giants
TTITLE5=Heart in my hands
TTITLE6=Keep running
TTITLE7=The changing shapes of love
TTITLE8=Clutterbug
TTITLE9=Song for a friend
TTITLE10=It's not over
TTITLE11=Everything you never hab PT II
EXTD=
EXTT0=
EXTT1=
EXTT2=
EXTT3=
EXTT4=
EXTT5=
EXTT6=
EXTT7=
EXTT8=
EXTT9=
EXTT10=
EXTT11=
PLAYORDER=
